<svg width="25" height="25" viewBox="0 0 25 25" fill="none" xmlns="http://www.w3.org/2000/svg">
<path d="M7.63889 0H3.47222C2.55133 0 1.66816 0.365822 1.01699 1.01699C0.365822 1.66816 0 2.55133 0 3.47222C0 4.39311 0.365822 5.27629 1.01699 5.92745C1.66816 6.57862 2.55133 6.94444 3.47222 6.94444H7.63889C8.55978 6.94444 9.44295 6.57862 10.0941 5.92745C10.7453 5.27629 11.1111 4.39311 11.1111 3.47222C11.1111 2.55133 10.7453 1.66816 10.0941 1.01699C9.44295 0.365822 8.55978 0 7.63889 0ZM7.63889 5.55556H3.47222C2.91969 5.55556 2.38978 5.33606 1.99908 4.94536C1.60838 4.55466 1.38889 4.02476 1.38889 3.47222C1.38889 2.91969 1.60838 2.38978 1.99908 1.99908C2.38978 1.60838 2.91969 1.38889 3.47222 1.38889H7.63889C8.19142 1.38889 8.72133 1.60838 9.11203 1.99908C9.50273 2.38978 9.72222 2.91969 9.72222 3.47222C9.72222 4.02476 9.50273 4.55466 9.11203 4.94536C8.72133 5.33606 8.19142 5.55556 7.63889 5.55556ZM7.63889 9.72222H3.47222C2.55133 9.72222 1.66816 10.088 1.01699 10.7392C0.365822 11.3904 0 12.2736 0 13.1944V21.5278C0 22.4487 0.365822 23.3318 1.01699 23.983C1.66816 24.6342 2.55133 25 3.47222 25H7.63889C8.55978 25 9.44295 24.6342 10.0941 23.983C10.7453 23.3318 11.1111 22.4487 11.1111 21.5278V13.1944C11.1111 12.2736 10.7453 11.3904 10.0941 10.7392C9.44295 10.088 8.55978 9.72222 7.63889 9.72222ZM9.72222 21.5278C9.72222 22.0803 9.50273 22.6102 9.11203 23.0009C8.72133 23.3916 8.19142 23.6111 7.63889 23.6111H3.47222C2.91969 23.6111 2.38978 23.3916 1.99908 23.0009C1.60838 22.6102 1.38889 22.0803 1.38889 21.5278V13.1944C1.38889 12.6419 1.60838 12.112 1.99908 11.7213C2.38978 11.3306 2.91969 11.1111 3.47222 11.1111H7.63889C8.19142 11.1111 8.72133 11.3306 9.11203 11.7213C9.50273 12.112 9.72222 12.6419 9.72222 13.1944V21.5278ZM21.5278 18.0556H17.3611C16.4402 18.0556 15.557 18.4214 14.9059 19.0725C14.2547 19.7237 13.8889 20.6069 13.8889 21.5278C13.8889 22.4487 14.2547 23.3318 14.9059 23.983C15.557 24.6342 16.4402 25 17.3611 25H21.5278C22.4487 25 23.3318 24.6342 23.983 23.983C24.6342 23.3318 25 22.4487 25 21.5278C25 20.6069 24.6342 19.7237 23.983 19.0725C23.3318 18.4214 22.4487 18.0556 21.5278 18.0556ZM21.5278 23.6111H17.3611C16.8086 23.6111 16.2787 23.3916 15.888 23.0009C15.4973 22.6102 15.2778 22.0803 15.2778 21.5278C15.2778 20.9752 15.4973 20.4453 15.888 20.0546C16.2787 19.6639 16.8086 19.4444 17.3611 19.4444H21.5278C22.0803 19.4444 22.6102 19.6639 23.0009 20.0546C23.3916 20.4453 23.6111 20.9752 23.6111 21.5278C23.6111 22.0803 23.3916 22.6102 23.0009 23.0009C22.6102 23.3916 22.0803 23.6111 21.5278 23.6111ZM21.5278 0H17.3611C16.4402 0 15.557 0.365822 14.9059 1.01699C14.2547 1.66816 13.8889 2.55133 13.8889 3.47222V11.8056C13.8889 12.7264 14.2547 13.6096 14.9059 14.2608C15.557 14.912 16.4402 15.2778 17.3611 15.2778H21.5278C22.4487 15.2778 23.3318 14.912 23.983 14.2608C24.6342 13.6096 25 12.7264 25 11.8056V3.47222C25 2.55133 24.6342 1.66816 23.983 1.01699C23.3318 0.365822 22.4487 0 21.5278 0ZM23.6111 11.8056C23.6111 12.3581 23.3916 12.888 23.0009 13.2787C22.6102 13.6694 22.0803 13.8889 21.5278 13.8889H17.3611C16.8086 13.8889 16.2787 13.6694 15.888 13.2787C15.4973 12.888 15.2778 12.3581 15.2778 11.8056V3.47222C15.2778 2.91969 15.4973 2.38978 15.888 1.99908C16.2787 1.60838 16.8086 1.38889 17.3611 1.38889H21.5278C22.0803 1.38889 22.6102 1.60838 23.0009 1.99908C23.3916 2.38978 23.6111 2.91969 23.6111 3.47222V11.8056Z" fill="black"/>
</svg>
