<svg width="27" height="29" viewBox="0 0 27 29" fill="none" xmlns="http://www.w3.org/2000/svg">
<path d="M9.75949 25.6992V21.664C9.75947 20.6377 10.5962 19.8037 11.6329 19.7968H15.4304C16.472 19.7968 17.3165 20.6328 17.3165 21.664V25.7117C17.3162 26.5832 18.0188 27.2954 18.8987 27.3158H21.4304C23.9541 27.3158 26 25.2904 26 22.7919V11.3129C25.9865 10.33 25.5204 9.40704 24.7342 8.80662L16.0759 1.90171C14.5591 0.699429 12.4029 0.699429 10.8861 1.90171L2.26582 8.81915C1.47666 9.41713 1.00972 10.3417 1 11.3255V22.7919C1 25.2904 3.04589 27.3158 5.56962 27.3158H8.10127C9.0031 27.3158 9.73418 26.592 9.73418 25.6992" stroke="black" stroke-opacity="1" stroke-width="1.5" stroke-linecap="round" stroke-linejoin="round"/>
</svg>
