<svg width="27" height="28" viewBox="0 0 27 28" fill="none" xmlns="http://www.w3.org/2000/svg">
<path d="M24.3759 14.592L25.0368 12.1258C25.8081 9.24704 26.1937 7.80766 25.9033 6.56203C25.6741 5.57848 25.1582 4.68503 24.4211 3.99465C23.4876 3.12031 22.0481 2.73463 19.1695 1.96327C16.2907 1.1919 14.8512 0.806229 13.6057 1.09667C12.6221 1.326 11.7286 1.84183 11.0383 2.57894C10.2897 3.37821 9.89928 4.5483 9.31835 6.6751C9.22079 7.03227 9.11785 7.41643 9.00695 7.83034L8.34608 10.2967C7.57472 13.1755 7.18904 14.6148 7.47949 15.8605C7.70881 16.8441 8.22464 17.7375 8.96175 18.4279C9.89528 19.3022 11.3347 19.6879 14.2134 20.4593C16.8082 21.1545 18.2335 21.5365 19.4017 21.3923C19.5296 21.3766 19.6543 21.3546 19.7772 21.3258C20.7607 21.0966 21.6542 20.5807 22.3445 19.8436C23.2188 18.9101 23.6046 17.4707 24.3759 14.592Z" stroke="#1C274C" stroke-width="1.75"/>
<path d="M19.4017 21.392C19.1355 22.207 18.6675 22.9444 18.0383 23.5338C17.1047 24.4081 15.6653 24.7937 12.7866 25.5652C9.90784 26.3365 8.46846 26.7221 7.22281 26.4317C6.23929 26.2024 5.34583 25.6866 4.65545 24.9495C3.78111 24.0159 3.39543 22.5766 2.62407 19.6978L1.96327 17.2316C1.1919 14.3529 0.806229 12.9135 1.09667 11.6679C1.326 10.6843 1.84183 9.79089 2.57894 9.10052C3.51247 8.22617 4.95184 7.8405 7.8306 7.06913C8.37523 6.9232 8.86833 6.79107 9.31836 6.67471" stroke="#1C274C" stroke-width="1.75"/>
</svg>
