<svg width="14" height="14" viewBox="0 0 14 14" fill="none" xmlns="http://www.w3.org/2000/svg">
<path d="M3.73676 3.73676H3.74352M6.0763 1H4.24373C3.10831 1 2.54061 1 2.10694 1.22097C1.72547 1.41533 1.41533 1.72547 1.22097 2.10694C1 2.54061 1 3.10831 1 4.24373V6.0763C1 6.57211 1 6.82006 1.05602 7.0534C1.10568 7.26026 1.18759 7.45799 1.29875 7.63944C1.42412 7.84399 1.59943 8.01929 1.95007 8.36995L5.12622 11.5461C5.92905 12.3489 6.33052 12.7504 6.79336 12.9008C7.20059 13.0331 7.63917 13.0331 8.04639 12.9008C8.50923 12.7504 8.91071 12.3489 9.71353 11.5461L11.5461 9.71353C12.3489 8.91071 12.7504 8.50923 12.9008 8.04639C13.0331 7.63917 13.0331 7.20059 12.9008 6.79336C12.7504 6.33052 12.3489 5.92905 11.5461 5.12622L8.36995 1.95007C8.01929 1.59943 7.84399 1.42412 7.63944 1.29875C7.45799 1.18759 7.26026 1.10568 7.0534 1.05602C6.82006 1 6.57211 1 6.0763 1ZM4.07465 3.73676C4.07465 3.92338 3.92338 4.07465 3.73676 4.07465C3.55015 4.07465 3.39887 3.92338 3.39887 3.73676C3.39887 3.55015 3.55015 3.39887 3.73676 3.39887C3.92338 3.39887 4.07465 3.55015 4.07465 3.73676Z" stroke="#5A00D8" stroke-linecap="round" stroke-linejoin="round"/>
</svg>
