<?xml version="1.0" encoding="UTF-8"?>
<svg xmlns="http://www.w3.org/2000/svg" xmlns:xlink="http://www.w3.org/1999/xlink" viewBox="0 0 510.69 173.96">
  <defs>
    <style>
      .cls-1 {
        isolation: isolate;
      }

      .cls-1, .cls-2, .cls-3, .cls-4 {
        fill: none;
      }

      .cls-5 {
        fill: #5a00d8;
      }

      .cls-6 {
        fill: #7542ff;
      }

      .cls-2 {
        mix-blend-mode: hard-light;
        opacity: .2;
      }

      .cls-3 {
        mask: url(#mask);
      }

      .cls-4 {
        stroke: #f2eeff;
        stroke-miterlimit: 10;
      }

      .cls-7 {
        fill: url(#Naamloos_verloop_14);
      }
    </style>
    <filter id="luminosity-noclip" x="2.83" y="-8278.73" width="504.15" height="32766" color-interpolation-filters="sRGB" filterUnits="userSpaceOnUse">
      <feFlood flood-color="#fff" result="bg"/>
      <feBlend in="SourceGraphic" in2="bg"/>
    </filter>
    <mask id="mask" x="2.83" y="-8278.73" width="504.15" height="32766" maskUnits="userSpaceOnUse"/>
    <linearGradient id="Naamloos_verloop_14" data-name="Naamloos verloop 14" x1="271.45" y1="210.96" x2="244.01" y2="92.11" gradientUnits="userSpaceOnUse">
      <stop offset="0" stop-color="#fff"/>
      <stop offset="0" stop-color="#fcfcfc"/>
      <stop offset=".08" stop-color="#c8c8c8"/>
      <stop offset=".17" stop-color="#999"/>
      <stop offset=".26" stop-color="#707070"/>
      <stop offset=".35" stop-color="#4d4d4d"/>
      <stop offset=".45" stop-color="#313131"/>
      <stop offset=".56" stop-color="#1b1b1b"/>
      <stop offset=".67" stop-color="#0b0b0b"/>
      <stop offset=".81" stop-color="#020202"/>
      <stop offset="1" stop-color="#000"/>
    </linearGradient>
  </defs>
  <g class="cls-1">
    <g id="Laag_2" data-name="Laag 2">
      <g id="Laag_1-2" data-name="Laag 1">
        <g>
          <g>
            <g>
              <path class="cls-4" d="m205,67.38c1.63-8.01,2.46-15.48,2.46-22.19s-.44-12.26-1.31-16.46c-2.79-14.01-8.63-21.12-17.38-21.12-6.02,0-11.49,2.02-16.24,5.98-7.13,5.8-6.52,10.16-4.8,12.75,4.73,7.41,7.12,16.65,7.12,27.46,0,14.43-3.73,29.85-11.1,45.86-3.29,7.26-7.13,14.16-11.39,20.5-4.26,6.35-8.71,11.93-13.2,16.59-4.44,4.61-8.86,8.26-13.14,10.84-3.98,2.41-7.56,3.64-10.62,3.64-2.42,0-4.05-1.03-5.3-3.34-.63-1.16-1.06-2.41-1.27-3.74-.17-1.05-.37-3.5-.37-9.14,0-4.5.75-10.75,2.23-18.62,4.63-25.48,13.71-45.54,27.03-59.67l3.75-4.07c1.22-1.46,1.86-3.18,1.86-4.97,0-2.44-1.14-5.89-6.59-8.49-1.56-.74-3.24-1.3-4.99-1.67-3.78-.79-7.27-.77-9.91.54-6.18,3.02-12.5,7.23-18.77,12.5-21.78,18.15-44.09,45.53-66.35,81.42l-5.56,9.27c0-.13,0-.26,0-.39,0-7.28,2.05-16.39,6.09-27.05,1.9-4.88,4.1-9.97,6.54-15.13l7.47-15.77c2.47-5.21,4.96-10.23,7.42-14.94l7.1-13.78c2.12-4.39,3.9-8.57,5.28-12.44,1.5-4.2,2.23-7.54,2.23-10.22s-.72-5.78-2.21-9.24c-1.45-3.37-3.89-6.78-7.23-10.13-2.19-2.19-4.87-4.1-7.95-5.68-3.26-1.67-7.49-2.52-12.56-2.52s-11.17,1.25-18.97,3.8c-11.16,3.52-17.01,7.69-18.42,13.12-.99,3.8.38,7.7,4.06,11.6,3.79,3.96,7.9,5.97,12.21,5.97,2.29,0,4.6-.84,6.87-2.51,4.85-2.53,10.06-4.12,15.54-4.75-5.57,9.04-11.19,19.41-16.77,30.89-3.34,6.75-6.53,13.76-9.48,20.86-2.96,7.11-5.59,14.16-7.83,20.96-2.24,6.83-4.04,13.43-5.34,19.62-1.32,6.3-2,12.55-2,18.58,0,6.39,1.75,12.82,5.21,19.13,1.81,3.31,4.14,6.11,6.91,8.33,3.05,2.44,6.78,3.68,11.08,3.68,4.71,0,8.16-1.53,10.23-4.54l13.59-19.71c5.27-7.6,14.77-20.37,28.19-37.89,1.67-2.1,3.36-4.18,5.07-6.25-2.53,10-3.81,20.2-3.81,30.5s2.18,18.89,6.45,25.64c5.16,8.26,13.05,12.46,23.45,12.46s21.92-3.9,33.56-11.56c5.55-3.56,11.07-7.9,16.39-12.91,5.31-4.99,10.39-10.59,15.1-16.64,4.72-6.05,9.12-12.65,13.1-19.62,3.98-6.97,7.48-14.34,10.4-21.91,2.93-7.59,5.24-15.48,6.86-23.45Z"/>
              <path class="cls-4" d="m297.56,144.9c-1.39,0-3.03.59-5.66,2.05-1.4.77-3.3,1.17-5.65,1.17-1.17,0-1.23-3.62-1.23-4.34s.09-2.35.48-5.93c1.26-8.66,10.34-30.66,26.98-65.38.85-1.76,2.18-6.35-3.82-10.77-1.59-1.23-3.48-2.18-5.62-2.83-2.05-.62-4.43-.93-7.09-.93-3.49,0-6.73,1.98-9.53,5.75-.54.65-1.65,2.01-23.8,41.19-2.33,4.13-6.09,9.74-11.19,16.67-2.57,3.52-5.25,6.98-7.97,10.26-2.7,3.27-5.31,6.17-7.76,8.62-2.42,2.42-4.64,4.35-6.6,5.74-2.07,1.47-3.21,1.63-3.61,1.63-.27,0-.47-.02-.61-.04-.07-.29-.15-.83-.15-1.71,0-.65.28-2.78,2.87-8.53l3.86-8.04c1.67-3.62,4.84-10.91,9.72-22.37,1.74-4.31,3.36-8.54,4.82-12.57,1.48-4.09,2.7-7.95,3.62-11.46.97-3.7,1.47-7.13,1.47-10.19,0-3.73-1.5-7.12-4.46-10.08-1.44-1.44-3.28-2.62-5.46-3.52-2.22-.91-5.19-1.36-9.08-1.36s-7.83.92-11.81,2.79c-1.95,1.02-3.59,2.25-4.88,3.67-1.61,1.77-2.42,3.74-2.42,5.85,0,3.36,1.88,4.95,3.02,5.61,2.32,1.33,3.15,2.31,3.38,2.65.15.39,1.18,4.45-8.17,25.2l-5.6,12.45c-1.88,4.17-3.64,8.3-5.24,12.27-1.63,4.05-2.99,8-4.02,11.74-1.08,3.92-1.63,7.56-1.63,10.8s.49,6.39,1.48,9.1c3.35,8.75,10.42,13.38,20.43,13.38,6.42,0,13.49-3.13,21.04-9.32,3.3-2.72,7.19-6.56,11.58-11.4,2.29-2.53,5.38-6.29,9.34-11.37-1.14,4.59-1.7,8.49-1.7,11.74,0,6.43,2.53,11.93,7.53,16.35,3.01,2.65,7.22,4,12.51,4,6.08,0,11.48-1.52,16.12-4.57,6.94-4.76,10.46-10.84,10.46-18.07,0-3.55-2.38-5.93-5.93-5.93Z"/>
              <path class="cls-4" d="m471.32,144.48c-1.18,0-2.63.38-6.26,2.27-1.89.99-3.95,1.47-6.3,1.47-.49,0-.67-.09-.67-.09-.09-.09-.35-.66-.35-1.97,0-4.79,2.44-12.53,7.24-22.98,1.71-3.63,3.49-7.24,5.34-10.84,1.89-3.68,4.12-8.44,6.63-14.15,2.68-6.1,4.03-12.16,4.03-18.03,0-6.58-2.15-11.98-6.33-15.99-2.01-2.01-4.48-3.57-7.33-4.65-2.78-1.04-5.64-1.58-8.51-1.58s-6.6.99-10.99,3.03c-4.36,2.02-9.15,6-14.71,12.25l-8.62,10.3-2.1,2.77c.66-2.95.99-5.69.99-8.2,0-5.9-1.8-10.77-5.34-14.48-3.59-3.76-8.38-5.66-14.24-5.66s-11.57,2.3-17.67,6.85c-3.2,2.45-7.44,6.76-12.98,13.16-1.14,1.33-3.21,3.89-6.23,7.72.42-1.32.8-2.64,1.14-3.95.76-2.95,1.15-5.92,1.15-8.83,0-3.64-1.71-7.07-5.12-10.21-1.63-1.46-3.57-2.63-5.77-3.47-2.23-.85-5.07-1.27-8.69-1.27s-7.4.93-11.09,2.82c-1.9,1.04-3.48,2.29-4.7,3.73-1.48,1.76-2.23,3.7-2.23,5.76,0,3.03,1.39,4.63,2.55,5.44l2.01,1.41c.72.52,1.67,1.53,1.67,4.2,0,3.76-2.08,13.44-11.98,38.2l-5.79,14.16c-1.62,3.77-3.05,6.92-4.31,9.44l-3.91,8.33c-2.34,4.69-2.66,6.53-2.66,7.71,0,3.71,1.75,7.07,5.22,9.99,1.54,1.28,3.36,2.33,5.4,3.12,2.1.81,4.31,1.22,6.57,1.22,2.84,0,5.26-1.04,7.01-3.01,1.3-1.47,2.71-3.78,4.34-7.13l5.62-12.07c2.21-4.89,5.31-11.12,9.2-18.51l9.14-11.58c3.53-4.49,9.16-11.12,17.16-20.24,14.2-15.5,18.64-16.28,19.39-16.28.34,0,.53.04.58.03.04.11.13.42.13,1.05,0,1.16-.73,5.45-7.44,20.22l-14.54,30.76c-2.22,4.85-4.12,9.33-5.64,13.34-1.66,4.35-2.46,7.78-2.46,10.5,0,3.42,1.84,6.52,5.44,9.19,1.48,1.13,3.23,2.04,5.21,2.72,1.99.68,4.06,1.02,6.18,1.02,2.81,0,5.16-1.09,6.81-3.14,1.17-1.47,2.45-3.77,3.9-7.07l5.31-12.08c2.06-4.86,5.09-11.09,9.01-18.54l7.06-10.24c2.8-4.17,7.89-11.1,15.11-20.55,12.99-16.61,16.94-17.2,17.34-17.22.36,0,.61.03.67.02.02.1.04.25.04.48,0,.99-.39,3.51-2.99,9.18-1.08,2.29-2.67,5.43-4.75,9.34-2.13,4-4.28,8.48-6.4,13.31-2.13,4.86-4,9.94-5.54,15.08-1.62,5.36-2.44,11.29-2.44,17.62,0,6.95,2.29,12.84,6.79,17.5,2.08,2.17,4.46,3.78,7.09,4.8,2.58,1,5.76,1.48,9.74,1.48,4.2,0,8.76-1.64,13.52-4.84,7.32-4.83,11.03-11.03,11.03-18.42,0-3.42-2.3-5.72-5.72-5.72Z"/>
            </g>
            <path class="cls-4" d="m509.77,135.4c-1.39,6.56-12.44,10.93-15.04,10.93-8,0-10.1-4.37-8.7-10.93,1.39-6.56,7.84-11.87,14.4-11.87,8.94,0,10.74,5.32,9.35,11.87Z"/>
          </g>
          <g>
            <path class="cls-5" d="m204.27,41.19c0,6.69-.85,14.17-2.48,22.17-1.63,8-3.93,15.87-6.84,23.45-2.9,7.47-6.34,14.73-10.24,21.61-.07.11-.11.21-.18.32-3.97,6.98-8.39,13.57-13.11,19.62-4.71,6.06-9.78,11.65-15.09,16.65-5.35,4.99-10.84,9.35-16.4,12.89-11.65,7.65-22.95,11.55-33.58,11.55s-18.28-4.18-23.41-12.43c-4.29-6.77-6.48-15.41-6.48-25.64v-.25c.04-10.24,1.31-20.33,3.83-30.25-1.7,2.05-3.4,4.14-5.06,6.23-9.67,12.64-17.28,22.81-22.77,30.32-2.16,2.94-3.97,5.45-5.42,7.58l-13.6,19.69c-2.05,3.01-5.53,4.57-10.24,4.57-4.29,0-8-1.24-11.09-3.68-2.76-2.23-5.1-5.03-6.91-8.32-.92-1.66-1.7-3.36-2.37-5.06-1.88-4.68-2.83-9.39-2.83-14.1,0-6.02.67-12.26,1.98-18.56,1.31-6.2,3.12-12.79,5.35-19.62,2.23-6.8,4.89-13.85,7.83-20.97,2.98-7.08,6.16-14.1,9.49-20.86,5.56-11.48,11.19-21.85,16.75-30.89-5.45.64-10.66,2.23-15.51,4.75-2.27,1.66-4.6,2.51-6.87,2.51-4.32,0-8.43-2.02-12.22-5.99-3.68-3.9-5.03-7.79-4.07-11.58,1.42-5.42,7.26-9.6,18.42-13.11,7.83-2.55,14.03-3.79,18.98-3.79s9.28.81,12.57,2.51c3.05,1.56,5.74,3.47,7.93,5.67,3.33,3.36,5.77,6.77,7.23,10.13,1.49,3.47,2.2,6.48,2.2,9.24s-.71,6.02-2.23,10.2c-1.38,3.86-3.15,8.08-5.28,12.43l-7.08,13.78c-2.44,4.71-4.96,9.74-7.4,14.95l-7.47,15.8c-2.44,5.14-4.64,10.24-6.55,15.12-4.04,10.63-6.09,19.76-6.09,27.03v.39l5.56-9.28c22.24-35.88,44.56-63.26,66.34-81.39,6.27-5.28,12.61-9.49,18.77-12.5,2.66-1.31,6.13-1.35,9.92-.57,1.74.39,3.44.96,4.99,1.7,5.45,2.59,6.59,6.02,6.59,8.47,0,1.81-.64,3.51-1.84,4.96l-3.75,4.11c-13.32,14.1-22.42,34.18-27.06,59.65-.81,4.39-1.42,8.29-1.74,11.65-.32,2.66-.46,4.99-.46,6.98,0,5.63.18,8.08.35,9.14.21,1.31.64,2.59,1.28,3.72,1.24,2.34,2.87,3.36,5.31,3.36,3.05,0,6.62-1.24,10.59-3.65,4.29-2.59,8.71-6.23,13.14-10.84,4.5-4.68,8.96-10.24,13.21-16.58.32-.5.67-1.03.96-1.52,3.9-5.95,7.4-12.29,10.45-18.99,7.37-16.01,11.09-31.45,11.09-45.87,0-10.8-2.41-20.05-7.12-27.45-1.74-2.59-2.34-6.94,4.78-12.75,4.75-3.97,10.24-5.99,16.26-5.99,8.75,0,14.59,7.12,17.36,21.11.89,4.21,1.35,9.74,1.35,16.47Z"/>
            <path class="cls-5" d="m282.29,133.85c-.39,3.58-.5,5.21-.5,5.92,0,.74.07,4.36,1.24,4.36,2.37,0,4.25-.39,5.67-1.17,2.62-1.45,4.25-2.05,5.63-2.05,3.58,0,5.95,2.37,5.95,5.92,0,7.26-3.54,13.32-10.48,18.1-4.6,3.05-10.02,4.53-16.12,4.53-5.28,0-9.49-1.35-12.5-3.97-4.99-4.43-7.51-9.95-7.51-16.36,0-3.26.57-7.15,1.7-11.76-3.97,5.1-7.05,8.85-9.35,11.37-4.39,4.85-8.29,8.68-11.58,11.41-7.54,6.2-14.59,9.32-21.04,9.32-9.99,0-17.07-4.6-20.4-13.35-.99-2.73-1.49-5.77-1.49-9.1s.53-6.87,1.63-10.8c1.03-3.75,2.37-7.69,4-11.76,1.63-3.97,3.36-8.08,5.24-12.26l3.19-7.05,2.44-5.42c9.32-20.72,8.29-24.79,8.15-25.18-.21-.35-1.06-1.31-3.36-2.66-1.13-.67-3.05-2.27-3.05-5.6,0-2.13.81-4.11,2.44-5.88,1.28-1.42,2.9-2.66,4.89-3.65,3.97-1.88,7.9-2.8,11.79-2.8s6.87.46,9.07,1.35c2.2.92,4.04,2.09,5.45,3.54,2.98,2.94,4.46,6.34,4.46,10.06,0,3.08-.5,6.48-1.45,10.2-.92,3.51-2.13,7.37-3.61,11.44-1.17,3.22-2.44,6.59-3.79,9.99-.32.85-.67,1.7-1.03,2.59-4.89,11.48-8.08,18.77-9.74,22.39l-3.86,8.04c-2.59,5.74-2.87,7.86-2.87,8.54,0,.89.11,1.42.14,1.7.18.04.35.04.64.04.39,0,1.52-.14,3.61-1.63,1.95-1.38,4.18-3.33,6.59-5.74s5.07-5.35,7.76-8.61c2.73-3.29,5.38-6.77,7.97-10.27,5.1-6.94,8.85-12.54,11.19-16.68.57-.99,1.13-1.98,1.66-2.94,20.54-36.31,21.61-37.58,22.14-38.25,2.8-3.75,6.06-5.74,9.53-5.74,2.66,0,5.03.32,7.08.92,2.16.64,4.04,1.59,5.63,2.83,5.99,4.43,4.68,9,3.83,10.77-4.64,9.7-8.71,18.42-12.15,26.1-8.96,19.87-13.92,33.01-14.84,39.28Z"/>
            <path class="cls-5" d="m461.77,119.19c-4.78,10.45-7.23,18.17-7.23,22.99,0,1.31.25,1.88.35,1.95,0,0,.18.11.67.11,2.34,0,4.39-.5,6.3-1.49,3.61-1.88,5.06-2.27,6.23-2.27,3.44,0,5.74,2.3,5.74,5.74,0,7.4-3.72,13.57-11.05,18.42-4.75,3.19-9.32,4.82-13.49,4.82s-7.19-.46-9.74-1.45c-2.66-1.03-5.03-2.66-7.12-4.82-4.5-4.64-6.77-10.55-6.77-17.5,0-6.34.81-12.26,2.41-17.6,1.56-5.17,3.44-10.24,5.56-15.09,2.13-4.85,4.25-9.32,6.38-13.32,1.84-3.44,3.29-6.27,4.36-8.5.14-.28.25-.57.39-.85,2.62-5.67,3.01-8.18,3.01-9.17,0-.25-.04-.39-.04-.5-.07.04-.32,0-.67,0s-3.15.43-11.65,10.24c-1.66,1.95-3.54,4.25-5.7,6.98-7.23,9.46-12.29,16.36-15.09,20.54l-7.08,10.24c-3.93,7.44-6.94,13.67-9,18.52l-5.31,12.08c-1.45,3.29-2.73,5.6-3.9,7.08-1.66,2.05-4.04,3.12-6.84,3.12-2.09,0-4.18-.32-6.16-.99-1.98-.67-3.75-1.59-5.21-2.73-3.61-2.66-5.45-5.77-5.45-9.21,0-2.69.81-6.13,2.48-10.48,1.52-4,3.4-8.5,5.63-13.35l14.56-30.74c2.2-4.89,3.79-8.64,4.85-11.51,2.27-5.77,2.59-7.93,2.59-8.71,0-.64-.11-.92-.14-1.06-.04.04-.25,0-.57,0-.64,0-3.86.57-13.32,9.88-1.81,1.81-3.83,3.9-6.09,6.38-7.97,9.14-13.6,15.76-17.14,20.26l-9.14,11.58c-3.9,7.37-6.98,13.6-9.21,18.49l-5.6,12.08c-1.66,3.36-3.05,5.67-4.36,7.15-1.77,1.95-4.18,2.98-7.01,2.98-2.27,0-4.46-.39-6.59-1.2-2.02-.78-3.86-1.84-5.38-3.12-3.47-2.94-5.21-6.27-5.21-9.99,0-1.2.32-3.01,2.66-7.72l3.9-8.32c1.24-2.51,2.69-5.67,4.32-9.42l5.77-14.17c4-9.99,6.73-17.57,8.54-23.24,2.69-8.39,3.44-12.72,3.44-14.95,0-2.69-.96-3.68-1.66-4.21l-2.02-1.42c-1.13-.81-2.51-2.41-2.51-5.42,0-2.09.74-4,2.23-5.77,1.2-1.45,2.8-2.69,4.68-3.72,3.68-1.91,7.4-2.83,11.09-2.83s6.45.43,8.68,1.28c2.2.85,4.14,2.02,5.77,3.47,3.44,3.15,5.14,6.55,5.14,10.2,0,2.9-.39,5.88-1.17,8.82-.32,1.31-.71,2.62-1.13,3.97,3.05-3.83,5.1-6.41,6.23-7.72,5.56-6.41,9.78-10.7,13-13.18,6.09-4.53,12.01-6.84,17.67-6.84s10.63,1.91,14.2,5.67c3.54,3.72,5.35,8.57,5.35,14.49,0,2.51-.32,5.24-.99,8.18l2.09-2.76,8.64-10.31c5.56-6.23,10.34-10.2,14.7-12.26,4.39-2.02,7.97-3.01,10.98-3.01s5.74.53,8.5,1.56c2.87,1.1,5.35,2.66,7.33,4.68,4.18,4,6.34,9.42,6.34,15.97,0,5.35-1.1,10.84-3.36,16.4-.21.53-.43,1.1-.67,1.63-2.51,5.74-4.75,10.48-6.62,14.17-1.84,3.58-3.65,7.19-5.35,10.84Z"/>
          </g>
          <path class="cls-5" d="m506.57,131.41c-1.42,6.55-12.43,10.91-15.05,10.91-8,0-10.09-4.36-8.71-10.91,1.42-6.55,7.86-11.87,14.42-11.87,8.93,0,10.73,5.31,9.35,11.87Z"/>
          <g class="cls-3">
            <g class="cls-2">
              <g>
                <g>
                  <path class="cls-6" d="m2.83,152.2c14.63-4.71,31.24-9.7,49.62-14.77-2.16,2.94-3.97,5.45-5.42,7.58l-13.6,19.69c-2.05,3.01-5.53,4.57-10.24,4.57-4.29,0-8-1.24-11.09-3.68-2.76-2.23-5.1-5.03-6.91-8.32-.92-1.66-1.7-3.36-2.37-5.06Z"/>
                  <path class="cls-6" d="m2.83,152.2c14.63-4.71,31.24-9.7,49.62-14.77-2.16,2.94-3.97,5.45-5.42,7.58l-13.6,19.69c-2.05,3.01-5.53,4.57-10.24,4.57-4.29,0-8-1.24-11.09-3.68-2.76-2.23-5.1-5.03-6.91-8.32-.92-1.66-1.7-3.36-2.37-5.06Z"/>
                </g>
                <g>
                  <path class="cls-6" d="m184.71,108.42c-.07.11-.11.21-.18.32-3.97,6.98-8.39,13.57-13.11,19.62-4.71,6.06-9.78,11.65-15.09,16.65-5.35,4.99-10.84,9.35-16.4,12.89-11.65,7.65-22.95,11.55-33.58,11.55s-18.28-4.18-23.41-12.43c-4.29-6.77-6.48-15.41-6.48-25.64v-.25c9.39-2.41,19.13-4.78,29.26-7.08-.32,2.66-.46,4.99-.46,6.98,0,5.63.18,8.08.35,9.14.21,1.31.64,2.59,1.28,3.72,1.24,2.34,2.87,3.36,5.31,3.36,3.05,0,6.62-1.24,10.59-3.65,4.29-2.59,8.71-6.23,13.14-10.84,4.5-4.68,8.96-10.24,13.21-16.58.32-.5.67-1.03.96-1.52,11.19-2.16,22.74-4.25,34.6-6.23Z"/>
                  <path class="cls-6" d="m184.71,108.42c-.07.11-.11.21-.18.32-3.97,6.98-8.39,13.57-13.11,19.62-4.71,6.06-9.78,11.65-15.09,16.65-5.35,4.99-10.84,9.35-16.4,12.89-11.65,7.65-22.95,11.55-33.58,11.55s-18.28-4.18-23.41-12.43c-4.29-6.77-6.48-15.41-6.48-25.64v-.25c9.39-2.41,19.13-4.78,29.26-7.08-.32,2.66-.46,4.99-.46,6.98,0,5.63.18,8.08.35,9.14.21,1.31.64,2.59,1.28,3.72,1.24,2.34,2.87,3.36,5.31,3.36,3.05,0,6.62-1.24,10.59-3.65,4.29-2.59,8.71-6.23,13.14-10.84,4.5-4.68,8.96-10.24,13.21-16.58.32-.5.67-1.03.96-1.52,11.19-2.16,22.74-4.25,34.6-6.23Z"/>
                </g>
                <g>
                  <path class="cls-6" d="m300.29,146.81c0,7.26-3.54,13.32-10.48,18.1-4.6,3.05-10.02,4.53-16.12,4.53-5.28,0-9.49-1.35-12.5-3.97-4.99-4.43-7.51-9.95-7.51-16.36,0-3.26.57-7.15,1.7-11.76-3.97,5.1-7.05,8.85-9.35,11.37-4.39,4.85-8.29,8.68-11.58,11.41-7.54,6.2-14.59,9.32-21.04,9.32-9.99,0-17.07-4.6-20.4-13.35-.99-2.73-1.49-5.77-1.49-9.1s.53-6.87,1.63-10.8c1.03-3.75,2.37-7.69,4-11.76,1.63-3.97,3.36-8.08,5.24-12.26l3.19-7.05c10.87-1.66,22.03-3.19,33.44-4.6-.32.85-.67,1.7-1.03,2.59-4.89,11.48-8.08,18.77-9.74,22.39l-3.86,8.04c-2.59,5.74-2.87,7.86-2.87,8.54,0,.89.11,1.42.14,1.7.18.04.35.04.64.04.39,0,1.52-.14,3.61-1.63,1.95-1.38,4.18-3.33,6.59-5.74s5.07-5.35,7.76-8.61c2.73-3.29,5.38-6.77,7.97-10.27,5.1-6.94,8.85-12.54,11.19-16.68.57-.99,1.13-1.98,1.66-2.94,11.79-1.28,23.8-2.41,36.06-3.36-8.96,19.87-13.92,33.01-14.84,39.28-.39,3.58-.5,5.21-.5,5.92,0,.74.07,4.36,1.24,4.36,2.37,0,4.25-.39,5.67-1.17,2.62-1.45,4.25-2.05,5.63-2.05,3.58,0,5.95,2.37,5.95,5.92Z"/>
                  <path class="cls-6" d="m300.29,146.81c0,7.26-3.54,13.32-10.48,18.1-4.6,3.05-10.02,4.53-16.12,4.53-5.28,0-9.49-1.35-12.5-3.97-4.99-4.43-7.51-9.95-7.51-16.36,0-3.26.57-7.15,1.7-11.76-3.97,5.1-7.05,8.85-9.35,11.37-4.39,4.85-8.29,8.68-11.58,11.41-7.54,6.2-14.59,9.32-21.04,9.32-9.99,0-17.07-4.6-20.4-13.35-.99-2.73-1.49-5.77-1.49-9.1s.53-6.87,1.63-10.8c1.03-3.75,2.37-7.69,4-11.76,1.63-3.97,3.36-8.08,5.24-12.26l3.19-7.05c10.87-1.66,22.03-3.19,33.44-4.6-.32.85-.67,1.7-1.03,2.59-4.89,11.48-8.08,18.77-9.74,22.39l-3.86,8.04c-2.59,5.74-2.87,7.86-2.87,8.54,0,.89.11,1.42.14,1.7.18.04.35.04.64.04.39,0,1.52-.14,3.61-1.63,1.95-1.38,4.18-3.33,6.59-5.74s5.07-5.35,7.76-8.61c2.73-3.29,5.38-6.77,7.97-10.27,5.1-6.94,8.85-12.54,11.19-16.68.57-.99,1.13-1.98,1.66-2.94,11.79-1.28,23.8-2.41,36.06-3.36-8.96,19.87-13.92,33.01-14.84,39.28-.39,3.58-.5,5.21-.5,5.92,0,.74.07,4.36,1.24,4.36,2.37,0,4.25-.39,5.67-1.17,2.62-1.45,4.25-2.05,5.63-2.05,3.58,0,5.95,2.37,5.95,5.92Z"/>
                </g>
                <g>
                  <path class="cls-6" d="m375.66,96.91c-7.97,9.14-13.6,15.76-17.14,20.26l-9.14,11.58c-3.9,7.37-6.98,13.6-9.21,18.49l-5.6,12.08c-1.66,3.36-3.05,5.67-4.36,7.15-1.77,1.95-4.18,2.98-7.01,2.98-2.27,0-4.46-.39-6.59-1.2-2.02-.78-3.86-1.84-5.38-3.12-3.47-2.94-5.21-6.27-5.21-9.99,0-1.2.32-3.01,2.66-7.72l3.9-8.32c1.24-2.51,2.69-5.67,4.32-9.42l5.77-14.17c4-9.99,6.73-17.57,8.54-23.24,16.51-.89,33.37-1.49,50.54-1.74-1.81,1.81-3.83,3.9-6.09,6.38Z"/>
                  <path class="cls-6" d="m375.66,96.91c-7.97,9.14-13.6,15.76-17.14,20.26l-9.14,11.58c-3.9,7.37-6.98,13.6-9.21,18.49l-5.6,12.08c-1.66,3.36-3.05,5.67-4.36,7.15-1.77,1.95-4.18,2.98-7.01,2.98-2.27,0-4.46-.39-6.59-1.2-2.02-.78-3.86-1.84-5.38-3.12-3.47-2.94-5.21-6.27-5.21-9.99,0-1.2.32-3.01,2.66-7.72l3.9-8.32c1.24-2.51,2.69-5.67,4.32-9.42l5.77-14.17c4-9.99,6.73-17.57,8.54-23.24,16.51-.89,33.37-1.49,50.54-1.74-1.81,1.81-3.83,3.9-6.09,6.38Z"/>
                </g>
                <g>
                  <path class="cls-6" d="m429.71,97.86c-7.23,9.46-12.29,16.36-15.09,20.54l-7.08,10.24c-3.93,7.44-6.94,13.67-9,18.52l-5.31,12.08c-1.45,3.29-2.73,5.6-3.9,7.08-1.66,2.05-4.04,3.12-6.84,3.12-2.09,0-4.18-.32-6.16-.99-1.98-.67-3.75-1.59-5.21-2.73-3.61-2.66-5.45-5.77-5.45-9.21,0-2.69.81-6.13,2.48-10.48,1.52-4,3.4-8.5,5.63-13.35l14.56-30.74c2.2-4.89,3.79-8.64,4.85-11.51,13.88-.11,27.95.04,42.22.46-1.66,1.95-3.54,4.25-5.7,6.98Z"/>
                  <path class="cls-6" d="m429.71,97.86c-7.23,9.46-12.29,16.36-15.09,20.54l-7.08,10.24c-3.93,7.44-6.94,13.67-9,18.52l-5.31,12.08c-1.45,3.29-2.73,5.6-3.9,7.08-1.66,2.05-4.04,3.12-6.84,3.12-2.09,0-4.18-.32-6.16-.99-1.98-.67-3.75-1.59-5.21-2.73-3.61-2.66-5.45-5.77-5.45-9.21,0-2.69.81-6.13,2.48-10.48,1.52-4,3.4-8.5,5.63-13.35l14.56-30.74c2.2-4.89,3.79-8.64,4.85-11.51,13.88-.11,27.95.04,42.22.46-1.66,1.95-3.54,4.25-5.7,6.98Z"/>
                </g>
                <g>
                  <path class="cls-6" d="m461.77,119.19c-4.78,10.45-7.23,18.17-7.23,22.99,0,1.31.25,1.88.35,1.95,0,0,.18.11.67.11,2.34,0,4.39-.5,6.3-1.49,3.61-1.88,5.06-2.27,6.23-2.27,3.44,0,5.74,2.3,5.74,5.74,0,7.4-3.72,13.57-11.05,18.42-4.75,3.19-9.32,4.82-13.49,4.82s-7.19-.46-9.74-1.45c-2.66-1.03-5.03-2.66-7.12-4.82-4.5-4.64-6.77-10.55-6.77-17.5,0-6.34.81-12.26,2.41-17.6,1.56-5.17,3.44-10.24,5.56-15.09,2.13-4.85,4.25-9.32,6.38-13.32,1.84-3.44,3.29-6.27,4.36-8.5,9.92.32,19.94.78,30.04,1.38-.21.53-.43,1.1-.67,1.63-2.51,5.74-4.75,10.48-6.62,14.17-1.84,3.58-3.65,7.19-5.35,10.84Z"/>
                  <path class="cls-6" d="m461.77,119.19c-4.78,10.45-7.23,18.17-7.23,22.99,0,1.31.25,1.88.35,1.95,0,0,.18.11.67.11,2.34,0,4.39-.5,6.3-1.49,3.61-1.88,5.06-2.27,6.23-2.27,3.44,0,5.74,2.3,5.74,5.74,0,7.4-3.72,13.57-11.05,18.42-4.75,3.19-9.32,4.82-13.49,4.82s-7.19-.46-9.74-1.45c-2.66-1.03-5.03-2.66-7.12-4.82-4.5-4.64-6.77-10.55-6.77-17.5,0-6.34.81-12.26,2.41-17.6,1.56-5.17,3.44-10.24,5.56-15.09,2.13-4.85,4.25-9.32,6.38-13.32,1.84-3.44,3.29-6.27,4.36-8.5,9.92.32,19.94.78,30.04,1.38-.21.53-.43,1.1-.67,1.63-2.51,5.74-4.75,10.48-6.62,14.17-1.84,3.58-3.65,7.19-5.35,10.84Z"/>
                </g>
                <g>
                  <path class="cls-6" d="m506.57,131.41c-1.42,6.55-12.43,10.91-15.05,10.91-8,0-10.09-4.36-8.71-10.91,1.42-6.55,7.86-11.87,14.42-11.87,8.93,0,10.73,5.31,9.35,11.87Z"/>
                  <path class="cls-6" d="m506.57,131.41c-1.42,6.55-12.43,10.91-15.05,10.91-8,0-10.09-4.36-8.71-10.91,1.42-6.55,7.86-11.87,14.42-11.87,8.93,0,10.73,5.31,9.35,11.87Z"/>
                </g>
              </g>
              <g>
                <g>
                  <path class="cls-7" d="m2.83,152.2c14.63-4.71,31.24-9.7,49.62-14.77-2.16,2.94-3.97,5.45-5.42,7.58l-13.6,19.69c-2.05,3.01-5.53,4.57-10.24,4.57-4.29,0-8-1.24-11.09-3.68-2.76-2.23-5.1-5.03-6.91-8.32-.92-1.66-1.7-3.36-2.37-5.06Z"/>
                  <path class="cls-7" d="m2.83,152.2c14.63-4.71,31.24-9.7,49.62-14.77-2.16,2.94-3.97,5.45-5.42,7.58l-13.6,19.69c-2.05,3.01-5.53,4.57-10.24,4.57-4.29,0-8-1.24-11.09-3.68-2.76-2.23-5.1-5.03-6.91-8.32-.92-1.66-1.7-3.36-2.37-5.06Z"/>
                  <path class="cls-7" d="m2.83,152.2c14.63-4.71,31.24-9.7,49.62-14.77-2.16,2.94-3.97,5.45-5.42,7.58l-13.6,19.69c-2.05,3.01-5.53,4.57-10.24,4.57-4.29,0-8-1.24-11.09-3.68-2.76-2.23-5.1-5.03-6.91-8.32-.92-1.66-1.7-3.36-2.37-5.06Z"/>
                </g>
                <g>
                  <path class="cls-7" d="m184.71,108.42c-.07.11-.11.21-.18.32-3.97,6.98-8.39,13.57-13.11,19.62-4.71,6.06-9.78,11.65-15.09,16.65-5.35,4.99-10.84,9.35-16.4,12.89-11.65,7.65-22.95,11.55-33.58,11.55s-18.28-4.18-23.41-12.43c-4.29-6.77-6.48-15.41-6.48-25.64v-.25c9.39-2.41,19.13-4.78,29.26-7.08-.32,2.66-.46,4.99-.46,6.98,0,5.63.18,8.08.35,9.14.21,1.31.64,2.59,1.28,3.72,1.24,2.34,2.87,3.36,5.31,3.36,3.05,0,6.62-1.24,10.59-3.65,4.29-2.59,8.71-6.23,13.14-10.84,4.5-4.68,8.96-10.24,13.21-16.58.32-.5.67-1.03.96-1.52,11.19-2.16,22.74-4.25,34.6-6.23Z"/>
                  <path class="cls-7" d="m184.71,108.42c-.07.11-.11.21-.18.32-3.97,6.98-8.39,13.57-13.11,19.62-4.71,6.06-9.78,11.65-15.09,16.65-5.35,4.99-10.84,9.35-16.4,12.89-11.65,7.65-22.95,11.55-33.58,11.55s-18.28-4.18-23.41-12.43c-4.29-6.77-6.48-15.41-6.48-25.64v-.25c9.39-2.41,19.13-4.78,29.26-7.08-.32,2.66-.46,4.99-.46,6.98,0,5.63.18,8.08.35,9.14.21,1.31.64,2.59,1.28,3.72,1.24,2.34,2.87,3.36,5.31,3.36,3.05,0,6.62-1.24,10.59-3.65,4.29-2.59,8.71-6.23,13.14-10.84,4.5-4.68,8.96-10.24,13.21-16.58.32-.5.67-1.03.96-1.52,11.19-2.16,22.74-4.25,34.6-6.23Z"/>
                  <path class="cls-7" d="m184.71,108.42c-.07.11-.11.21-.18.32-3.97,6.98-8.39,13.57-13.11,19.62-4.71,6.06-9.78,11.65-15.09,16.65-5.35,4.99-10.84,9.35-16.4,12.89-11.65,7.65-22.95,11.55-33.58,11.55s-18.28-4.18-23.41-12.43c-4.29-6.77-6.48-15.41-6.48-25.64v-.25c9.39-2.41,19.13-4.78,29.26-7.08-.32,2.66-.46,4.99-.46,6.98,0,5.63.18,8.08.35,9.14.21,1.31.64,2.59,1.28,3.72,1.24,2.34,2.87,3.36,5.31,3.36,3.05,0,6.62-1.24,10.59-3.65,4.29-2.59,8.71-6.23,13.14-10.84,4.5-4.68,8.96-10.24,13.21-16.58.32-.5.67-1.03.96-1.52,11.19-2.16,22.74-4.25,34.6-6.23Z"/>
                </g>
                <g>
                  <path class="cls-7" d="m300.29,146.81c0,7.26-3.54,13.32-10.48,18.1-4.6,3.05-10.02,4.53-16.12,4.53-5.28,0-9.49-1.35-12.5-3.97-4.99-4.43-7.51-9.95-7.51-16.36,0-3.26.57-7.15,1.7-11.76-3.97,5.1-7.05,8.85-9.35,11.37-4.39,4.85-8.29,8.68-11.58,11.41-7.54,6.2-14.59,9.32-21.04,9.32-9.99,0-17.07-4.6-20.4-13.35-.99-2.73-1.49-5.77-1.49-9.1s.53-6.87,1.63-10.8c1.03-3.75,2.37-7.69,4-11.76,1.63-3.97,3.36-8.08,5.24-12.26l3.19-7.05c10.87-1.66,22.03-3.19,33.44-4.6-.32.85-.67,1.7-1.03,2.59-4.89,11.48-8.08,18.77-9.74,22.39l-3.86,8.04c-2.59,5.74-2.87,7.86-2.87,8.54,0,.89.11,1.42.14,1.7.18.04.35.04.64.04.39,0,1.52-.14,3.61-1.63,1.95-1.38,4.18-3.33,6.59-5.74s5.07-5.35,7.76-8.61c2.73-3.29,5.38-6.77,7.97-10.27,5.1-6.94,8.85-12.54,11.19-16.68.57-.99,1.13-1.98,1.66-2.94,11.79-1.28,23.8-2.41,36.06-3.36-8.96,19.87-13.92,33.01-14.84,39.28-.39,3.58-.5,5.21-.5,5.92,0,.74.07,4.36,1.24,4.36,2.37,0,4.25-.39,5.67-1.17,2.62-1.45,4.25-2.05,5.63-2.05,3.58,0,5.95,2.37,5.95,5.92Z"/>
                  <path class="cls-7" d="m300.29,146.81c0,7.26-3.54,13.32-10.48,18.1-4.6,3.05-10.02,4.53-16.12,4.53-5.28,0-9.49-1.35-12.5-3.97-4.99-4.43-7.51-9.95-7.51-16.36,0-3.26.57-7.15,1.7-11.76-3.97,5.1-7.05,8.85-9.35,11.37-4.39,4.85-8.29,8.68-11.58,11.41-7.54,6.2-14.59,9.32-21.04,9.32-9.99,0-17.07-4.6-20.4-13.35-.99-2.73-1.49-5.77-1.49-9.1s.53-6.87,1.63-10.8c1.03-3.75,2.37-7.69,4-11.76,1.63-3.97,3.36-8.08,5.24-12.26l3.19-7.05c10.87-1.66,22.03-3.19,33.44-4.6-.32.85-.67,1.7-1.03,2.59-4.89,11.48-8.08,18.77-9.74,22.39l-3.86,8.04c-2.59,5.74-2.87,7.86-2.87,8.54,0,.89.11,1.42.14,1.7.18.04.35.04.64.04.39,0,1.52-.14,3.61-1.63,1.95-1.38,4.18-3.33,6.59-5.74s5.07-5.35,7.76-8.61c2.73-3.29,5.38-6.77,7.97-10.27,5.1-6.94,8.85-12.54,11.19-16.68.57-.99,1.13-1.98,1.66-2.94,11.79-1.28,23.8-2.41,36.06-3.36-8.96,19.87-13.92,33.01-14.84,39.28-.39,3.58-.5,5.21-.5,5.92,0,.74.07,4.36,1.24,4.36,2.37,0,4.25-.39,5.67-1.17,2.62-1.45,4.25-2.05,5.63-2.05,3.58,0,5.95,2.37,5.95,5.92Z"/>
                  <path class="cls-7" d="m300.29,146.81c0,7.26-3.54,13.32-10.48,18.1-4.6,3.05-10.02,4.53-16.12,4.53-5.28,0-9.49-1.35-12.5-3.97-4.99-4.43-7.51-9.95-7.51-16.36,0-3.26.57-7.15,1.7-11.76-3.97,5.1-7.05,8.85-9.35,11.37-4.39,4.85-8.29,8.68-11.58,11.41-7.54,6.2-14.59,9.32-21.04,9.32-9.99,0-17.07-4.6-20.4-13.35-.99-2.73-1.49-5.77-1.49-9.1s.53-6.87,1.63-10.8c1.03-3.75,2.37-7.69,4-11.76,1.63-3.97,3.36-8.08,5.24-12.26l3.19-7.05c10.87-1.66,22.03-3.19,33.44-4.6-.32.85-.67,1.7-1.03,2.59-4.89,11.48-8.08,18.77-9.74,22.39l-3.86,8.04c-2.59,5.74-2.87,7.86-2.87,8.54,0,.89.11,1.42.14,1.7.18.04.35.04.64.04.39,0,1.52-.14,3.61-1.63,1.95-1.38,4.18-3.33,6.59-5.74s5.07-5.35,7.76-8.61c2.73-3.29,5.38-6.77,7.97-10.27,5.1-6.94,8.85-12.54,11.19-16.68.57-.99,1.13-1.98,1.66-2.94,11.79-1.28,23.8-2.41,36.06-3.36-8.96,19.87-13.92,33.01-14.84,39.28-.39,3.58-.5,5.21-.5,5.92,0,.74.07,4.36,1.24,4.36,2.37,0,4.25-.39,5.67-1.17,2.62-1.45,4.25-2.05,5.63-2.05,3.58,0,5.95,2.37,5.95,5.92Z"/>
                </g>
                <g>
                  <path class="cls-7" d="m375.66,96.91c-7.97,9.14-13.6,15.76-17.14,20.26l-9.14,11.58c-3.9,7.37-6.98,13.6-9.21,18.49l-5.6,12.08c-1.66,3.36-3.05,5.67-4.36,7.15-1.77,1.95-4.18,2.98-7.01,2.98-2.27,0-4.46-.39-6.59-1.2-2.02-.78-3.86-1.84-5.38-3.12-3.47-2.94-5.21-6.27-5.21-9.99,0-1.2.32-3.01,2.66-7.72l3.9-8.32c1.24-2.51,2.69-5.67,4.32-9.42l5.77-14.17c4-9.99,6.73-17.57,8.54-23.24,16.51-.89,33.37-1.49,50.54-1.74-1.81,1.81-3.83,3.9-6.09,6.38Z"/>
                  <path class="cls-7" d="m375.66,96.91c-7.97,9.14-13.6,15.76-17.14,20.26l-9.14,11.58c-3.9,7.37-6.98,13.6-9.21,18.49l-5.6,12.08c-1.66,3.36-3.05,5.67-4.36,7.15-1.77,1.95-4.18,2.98-7.01,2.98-2.27,0-4.46-.39-6.59-1.2-2.02-.78-3.86-1.84-5.38-3.12-3.47-2.94-5.21-6.27-5.21-9.99,0-1.2.32-3.01,2.66-7.72l3.9-8.32c1.24-2.51,2.69-5.67,4.32-9.42l5.77-14.17c4-9.99,6.73-17.57,8.54-23.24,16.51-.89,33.37-1.49,50.54-1.74-1.81,1.81-3.83,3.9-6.09,6.38Z"/>
                  <path class="cls-7" d="m375.66,96.91c-7.97,9.14-13.6,15.76-17.14,20.26l-9.14,11.58c-3.9,7.37-6.98,13.6-9.21,18.49l-5.6,12.08c-1.66,3.36-3.05,5.67-4.36,7.15-1.77,1.95-4.18,2.98-7.01,2.98-2.27,0-4.46-.39-6.59-1.2-2.02-.78-3.86-1.84-5.38-3.12-3.47-2.94-5.21-6.27-5.21-9.99,0-1.2.32-3.01,2.66-7.72l3.9-8.32c1.24-2.51,2.69-5.67,4.32-9.42l5.77-14.17c4-9.99,6.73-17.57,8.54-23.24,16.51-.89,33.37-1.49,50.54-1.74-1.81,1.81-3.83,3.9-6.09,6.38Z"/>
                </g>
                <g>
                  <path class="cls-7" d="m429.71,97.86c-7.23,9.46-12.29,16.36-15.09,20.54l-7.08,10.24c-3.93,7.44-6.94,13.67-9,18.52l-5.31,12.08c-1.45,3.29-2.73,5.6-3.9,7.08-1.66,2.05-4.04,3.12-6.84,3.12-2.09,0-4.18-.32-6.16-.99-1.98-.67-3.75-1.59-5.21-2.73-3.61-2.66-5.45-5.77-5.45-9.21,0-2.69.81-6.13,2.48-10.48,1.52-4,3.4-8.5,5.63-13.35l14.56-30.74c2.2-4.89,3.79-8.64,4.85-11.51,13.88-.11,27.95.04,42.22.46-1.66,1.95-3.54,4.25-5.7,6.98Z"/>
                  <path class="cls-7" d="m429.71,97.86c-7.23,9.46-12.29,16.36-15.09,20.54l-7.08,10.24c-3.93,7.44-6.94,13.67-9,18.52l-5.31,12.08c-1.45,3.29-2.73,5.6-3.9,7.08-1.66,2.05-4.04,3.12-6.84,3.12-2.09,0-4.18-.32-6.16-.99-1.98-.67-3.75-1.59-5.21-2.73-3.61-2.66-5.45-5.77-5.45-9.21,0-2.69.81-6.13,2.48-10.48,1.52-4,3.4-8.5,5.63-13.35l14.56-30.74c2.2-4.89,3.79-8.64,4.85-11.51,13.88-.11,27.95.04,42.22.46-1.66,1.95-3.54,4.25-5.7,6.98Z"/>
                  <path class="cls-7" d="m429.71,97.86c-7.23,9.46-12.29,16.36-15.09,20.54l-7.08,10.24c-3.93,7.44-6.94,13.67-9,18.52l-5.31,12.08c-1.45,3.29-2.73,5.6-3.9,7.08-1.66,2.05-4.04,3.12-6.84,3.12-2.09,0-4.18-.32-6.16-.99-1.98-.67-3.75-1.59-5.21-2.73-3.61-2.66-5.45-5.77-5.45-9.21,0-2.69.81-6.13,2.48-10.48,1.52-4,3.4-8.5,5.63-13.35l14.56-30.74c2.2-4.89,3.79-8.64,4.85-11.51,13.88-.11,27.95.04,42.22.46-1.66,1.95-3.54,4.25-5.7,6.98Z"/>
                </g>
                <g>
                  <path class="cls-7" d="m461.77,119.19c-4.78,10.45-7.23,18.17-7.23,22.99,0,1.31.25,1.88.35,1.95,0,0,.18.11.67.11,2.34,0,4.39-.5,6.3-1.49,3.61-1.88,5.06-2.27,6.23-2.27,3.44,0,5.74,2.3,5.74,5.74,0,7.4-3.72,13.57-11.05,18.42-4.75,3.19-9.32,4.82-13.49,4.82s-7.19-.46-9.74-1.45c-2.66-1.03-5.03-2.66-7.12-4.82-4.5-4.64-6.77-10.55-6.77-17.5,0-6.34.81-12.26,2.41-17.6,1.56-5.17,3.44-10.24,5.56-15.09,2.13-4.85,4.25-9.32,6.38-13.32,1.84-3.44,3.29-6.27,4.36-8.5,9.92.32,19.94.78,30.04,1.38-.21.53-.43,1.1-.67,1.63-2.51,5.74-4.75,10.48-6.62,14.17-1.84,3.58-3.65,7.19-5.35,10.84Z"/>
                  <path class="cls-7" d="m461.77,119.19c-4.78,10.45-7.23,18.17-7.23,22.99,0,1.31.25,1.88.35,1.95,0,0,.18.11.67.11,2.34,0,4.39-.5,6.3-1.49,3.61-1.88,5.06-2.27,6.23-2.27,3.44,0,5.74,2.3,5.74,5.74,0,7.4-3.72,13.57-11.05,18.42-4.75,3.19-9.32,4.82-13.49,4.82s-7.19-.46-9.74-1.45c-2.66-1.03-5.03-2.66-7.12-4.82-4.5-4.64-6.77-10.55-6.77-17.5,0-6.34.81-12.26,2.41-17.6,1.56-5.17,3.44-10.24,5.56-15.09,2.13-4.85,4.25-9.32,6.38-13.32,1.84-3.44,3.29-6.27,4.36-8.5,9.92.32,19.94.78,30.04,1.38-.21.53-.43,1.1-.67,1.63-2.51,5.74-4.75,10.48-6.62,14.17-1.84,3.58-3.65,7.19-5.35,10.84Z"/>
                  <path class="cls-7" d="m461.77,119.19c-4.78,10.45-7.23,18.17-7.23,22.99,0,1.31.25,1.88.35,1.95,0,0,.18.11.67.11,2.34,0,4.39-.5,6.3-1.49,3.61-1.88,5.06-2.27,6.23-2.27,3.44,0,5.74,2.3,5.74,5.74,0,7.4-3.72,13.57-11.05,18.42-4.75,3.19-9.32,4.82-13.49,4.82s-7.19-.46-9.74-1.45c-2.66-1.03-5.03-2.66-7.12-4.82-4.5-4.64-6.77-10.55-6.77-17.5,0-6.34.81-12.26,2.41-17.6,1.56-5.17,3.44-10.24,5.56-15.09,2.13-4.85,4.25-9.32,6.38-13.32,1.84-3.44,3.29-6.27,4.36-8.5,9.92.32,19.94.78,30.04,1.38-.21.53-.43,1.1-.67,1.63-2.51,5.74-4.75,10.48-6.62,14.17-1.84,3.58-3.65,7.19-5.35,10.84Z"/>
                </g>
                <g>
                  <path class="cls-7" d="m506.57,131.41c-1.42,6.55-12.43,10.91-15.05,10.91-8,0-10.09-4.36-8.71-10.91,1.42-6.55,7.86-11.87,14.42-11.87,8.93,0,10.73,5.31,9.35,11.87Z"/>
                  <path class="cls-7" d="m506.57,131.41c-1.42,6.55-12.43,10.91-15.05,10.91-8,0-10.09-4.36-8.71-10.91,1.42-6.55,7.86-11.87,14.42-11.87,8.93,0,10.73,5.31,9.35,11.87Z"/>
                  <path class="cls-7" d="m506.57,131.41c-1.42,6.55-12.43,10.91-15.05,10.91-8,0-10.09-4.36-8.71-10.91,1.42-6.55,7.86-11.87,14.42-11.87,8.93,0,10.73,5.31,9.35,11.87Z"/>
                </g>
              </g>
            </g>
          </g>
        </g>
      </g>
    </g>
  </g>
</svg>